<svg xmlns="http://www.w3.org/2000/svg" viewBox="0 0 256 256" width="256" height="256" role="img" aria-label="gamehub app icon">
  <defs>
    <linearGradient id="g" x1="0" y1="0" x2="1" y2="1">
      <stop offset="0" stop-color="#BC00FF"/><stop offset="1" stop-color="#00F2FF"/>
    </linearGradient>
    <linearGradient id="s" x1="0" y1="0" x2="0" y2="1">
      <stop offset="0" stop-color="#fff" stop-opacity=".22"/><stop offset="1" stop-color="#fff" stop-opacity="0"/>
    </linearGradient>
  </defs>
  <rect width="256" height="256" rx="58" fill="url(#g)"/>
  <rect width="256" height="256" rx="58" fill="url(#s)"/>
  <g transform="translate(64 64) scale(5.3333)" fill="none" stroke="#fff" stroke-width="1.7"
     stroke-linecap="round" stroke-linejoin="round">
    <path d="M7.6 7.4h8.8a5 5 0 0 1 4.9 4l.9 5a3.1 3.1 0 0 1-5.6 2.3l-1.4-1.9H8.8l-1.4 1.9a3.1 3.1 0 0 1-5.6-2.3l.9-5a5 5 0 0 1 4.9-4z"/>
    <path d="M7.2 11.6v3.2M5.6 13.2h3.2"/>
    <circle cx="16.4" cy="12.2" r="1.05" fill="#fff" stroke="none"/>
    <circle cx="18.4" cy="14.6" r="1.05" fill="#fff" stroke="none"/>
  </g>
</svg>
